<svg width="217" height="46" viewBox="0 0 217 46" fill="none" xmlns="http://www.w3.org/2000/svg">
<g clip-path="url(#clip0_5_78)">
<path d="M22.9997 0C35.7026 0 45.9997 10.2971 45.9997 23V39.1C45.9997 40.93 45.2728 42.685 43.9788 43.979C42.6848 45.273 40.9297 46 39.0997 46H24.1497V35.9099C24.1497 33.6076 24.29 31.2225 25.4975 29.2629C26.362 27.8586 27.5185 26.6566 28.8884 25.7385C30.2583 24.8204 31.8096 24.2077 33.4371 23.9419L33.8776 23.8706C34.0592 23.8085 34.2168 23.6912 34.3284 23.5351C34.44 23.379 34.5 23.1919 34.5 23C34.5 22.8081 34.44 22.621 34.3284 22.4649C34.2168 22.3088 34.0592 22.1915 33.8776 22.1294L33.4371 22.0581C31.0591 21.6697 28.8632 20.5441 27.1594 18.8403C25.4556 17.1365 24.3301 14.9406 23.9416 12.5626L23.8703 12.1222C23.8082 11.9406 23.6909 11.7829 23.5348 11.6713C23.3787 11.5597 23.1916 11.4997 22.9997 11.4997C22.8078 11.4997 22.6208 11.5597 22.4647 11.6713C22.3086 11.7829 22.1913 11.9406 22.1292 12.1222L22.0579 12.5626C21.7922 14.1902 21.1795 15.7415 20.2614 17.1114C19.3433 18.4814 18.1412 19.6378 16.7368 20.5022C14.7772 21.7097 12.3921 21.85 10.0898 21.85H0.0273438C0.628794 9.68185 10.6832 0 22.9997 0Z" fill="#10B981"/>
<path d="M0 24.15H10.0901C12.3924 24.15 14.7775 24.2903 16.7371 25.4978C18.2689 26.4417 19.5583 27.7311 20.5022 29.2629C21.7097 31.2225 21.85 33.6076 21.85 35.9099V46H6.9C5.07001 46 3.31496 45.273 2.02096 43.979C0.726962 42.685 0 40.93 0 39.1V24.15ZM46 2.3C46 2.91 45.7577 3.49501 45.3263 3.92635C44.895 4.35768 44.31 4.6 43.7 4.6C43.09 4.6 42.505 4.35768 42.0737 3.92635C41.6423 3.49501 41.4 2.91 41.4 2.3C41.4 1.69 41.6423 1.10499 42.0737 0.673654C42.505 0.242321 43.09 0 43.7 0C44.31 0 44.895 0.242321 45.3263 0.673654C45.7577 1.10499 46 1.69 46 2.3Z" fill="#10B981"/>
<path d="M58.528 39V13.8H68.392C70.192 13.8 71.812 14.1 73.252 14.7C74.716 15.3 75.964 16.164 76.996 17.292C78.028 18.42 78.82 19.752 79.372 21.288C79.924 22.824 80.2 24.528 80.2 26.4C80.2 28.272 79.924 29.988 79.372 31.548C78.82 33.084 78.028 34.416 76.996 35.544C75.988 36.648 74.752 37.5 73.288 38.1C71.824 38.7 70.192 39 68.392 39H58.528ZM62.416 35.652L62.308 35.256H68.212C69.484 35.256 70.612 35.052 71.596 34.644C72.604 34.236 73.444 33.66 74.116 32.916C74.812 32.148 75.34 31.212 75.7 30.108C76.06 29.004 76.24 27.768 76.24 26.4C76.24 25.032 76.06 23.808 75.7 22.728C75.34 21.624 74.812 20.688 74.116 19.92C73.42 19.152 72.58 18.564 71.596 18.156C70.612 17.748 69.484 17.544 68.212 17.544H62.2L62.416 17.22V35.652ZM93.0177 39.36C91.1697 39.36 89.5137 38.94 88.0497 38.1C86.6097 37.236 85.4697 36.072 84.6297 34.608C83.7897 33.12 83.3697 31.428 83.3697 29.532C83.3697 27.636 83.7897 25.956 84.6297 24.492C85.4697 23.004 86.6097 21.84 88.0497 21C89.5137 20.136 91.1697 19.704 93.0177 19.704C94.8417 19.704 96.4737 20.136 97.9137 21C99.3777 21.84 100.53 23.004 101.37 24.492C102.21 25.956 102.63 27.636 102.63 29.532C102.63 31.428 102.21 33.12 101.37 34.608C100.53 36.072 99.3777 37.236 97.9137 38.1C96.4737 38.94 94.8417 39.36 93.0177 39.36ZM93.0177 35.976C94.1457 35.976 95.1537 35.7 96.0417 35.148C96.9297 34.572 97.6257 33.804 98.1297 32.844C98.6337 31.86 98.8737 30.756 98.8497 29.532C98.8737 28.284 98.6337 27.18 98.1297 26.22C97.6257 25.236 96.9297 24.468 96.0417 23.916C95.1537 23.364 94.1457 23.088 93.0177 23.088C91.8897 23.088 90.8697 23.376 89.9577 23.952C89.0697 24.504 88.3737 25.272 87.8697 26.256C87.3657 27.216 87.1257 28.308 87.1497 29.532C87.1257 30.756 87.3657 31.86 87.8697 32.844C88.3737 33.804 89.0697 34.572 89.9577 35.148C90.8697 35.7 91.8897 35.976 93.0177 35.976ZM114.698 39.36C112.946 39.36 111.374 38.928 109.982 38.064C108.614 37.2 107.522 36.024 106.706 34.536C105.914 33.048 105.518 31.38 105.518 29.532C105.518 27.684 105.914 26.016 106.706 24.528C107.522 23.04 108.614 21.864 109.982 21C111.374 20.136 112.946 19.704 114.698 19.704C116.378 19.704 117.902 20.052 119.27 20.748C120.662 21.42 121.718 22.344 122.438 23.52L120.386 26.04C120.002 25.488 119.51 24.984 118.91 24.528C118.31 24.072 117.674 23.712 117.002 23.448C116.33 23.184 115.682 23.052 115.058 23.052C113.906 23.052 112.874 23.34 111.962 23.916C111.074 24.468 110.366 25.236 109.838 26.22C109.31 27.204 109.046 28.308 109.046 29.532C109.046 30.756 109.322 31.86 109.874 32.844C110.426 33.804 111.158 34.572 112.07 35.148C112.982 35.724 113.99 36.012 115.094 36.012C115.742 36.012 116.366 35.904 116.966 35.688C117.59 35.472 118.19 35.148 118.766 34.716C119.342 34.284 119.882 33.756 120.386 33.132L122.438 35.652C121.67 36.732 120.566 37.62 119.126 38.316C117.71 39.012 116.234 39.36 114.698 39.36ZM126.872 39V13.8H130.364L145.772 34.428L145.196 34.752C145.1 34.152 145.016 33.504 144.944 32.808C144.872 32.088 144.8 31.332 144.728 30.54C144.68 29.724 144.632 28.872 144.584 27.984C144.56 27.072 144.536 26.124 144.512 25.14C144.488 24.156 144.476 23.136 144.476 22.08V13.8H148.364V39H144.8L129.644 19.128L130.04 18.624C130.16 20.088 130.256 21.336 130.328 22.368C130.424 23.376 130.496 24.24 130.544 24.96C130.616 25.656 130.664 26.232 130.688 26.688C130.712 27.12 130.724 27.48 130.724 27.768C130.748 28.056 130.76 28.308 130.76 28.524V39H126.872ZM162.979 39.36C161.131 39.36 159.475 38.94 158.011 38.1C156.571 37.236 155.431 36.072 154.591 34.608C153.751 33.12 153.331 31.428 153.331 29.532C153.331 27.636 153.751 25.956 154.591 24.492C155.431 23.004 156.571 21.84 158.011 21C159.475 20.136 161.131 19.704 162.979 19.704C164.803 19.704 166.435 20.136 167.875 21C169.339 21.84 170.491 23.004 171.331 24.492C172.171 25.956 172.591 27.636 172.591 29.532C172.591 31.428 172.171 33.12 171.331 34.608C170.491 36.072 169.339 37.236 167.875 38.1C166.435 38.94 164.803 39.36 162.979 39.36ZM162.979 35.976C164.107 35.976 165.115 35.7 166.003 35.148C166.891 34.572 167.587 33.804 168.091 32.844C168.595 31.86 168.835 30.756 168.811 29.532C168.835 28.284 168.595 27.18 168.091 26.22C167.587 25.236 166.891 24.468 166.003 23.916C165.115 23.364 164.107 23.088 162.979 23.088C161.851 23.088 160.831 23.376 159.919 23.952C159.031 24.504 158.335 25.272 157.831 26.256C157.327 27.216 157.087 28.308 157.111 29.532C157.087 30.756 157.327 31.86 157.831 32.844C158.335 33.804 159.031 34.572 159.919 35.148C160.831 35.7 161.851 35.976 162.979 35.976ZM178.971 39V15.276H182.679V39H178.971ZM175.047 23.7V20.1H187.071V23.7H175.047ZM199.092 39.36C197.148 39.36 195.42 38.952 193.908 38.136C192.42 37.296 191.244 36.156 190.38 34.716C189.54 33.276 189.12 31.62 189.12 29.748C189.12 28.26 189.36 26.904 189.84 25.68C190.32 24.456 190.98 23.4 191.82 22.512C192.684 21.6 193.704 20.904 194.88 20.424C196.08 19.92 197.376 19.668 198.768 19.668C199.992 19.668 201.132 19.908 202.188 20.388C203.244 20.844 204.156 21.48 204.924 22.296C205.716 23.112 206.316 24.084 206.724 25.212C207.156 26.316 207.36 27.528 207.336 28.848L207.3 30.432H191.856L191.028 27.48H204.096L203.556 28.092V27.228C203.484 26.436 203.22 25.728 202.764 25.104C202.308 24.48 201.732 23.988 201.036 23.628C200.34 23.268 199.584 23.088 198.768 23.088C197.472 23.088 196.38 23.34 195.492 23.844C194.604 24.324 193.932 25.044 193.476 26.004C193.02 26.94 192.792 28.104 192.792 29.496C192.792 30.816 193.068 31.968 193.62 32.952C194.172 33.912 194.952 34.656 195.96 35.184C196.968 35.712 198.132 35.976 199.452 35.976C200.388 35.976 201.252 35.82 202.044 35.508C202.86 35.196 203.736 34.632 204.672 33.816L206.544 36.444C205.968 37.02 205.26 37.524 204.42 37.956C203.604 38.388 202.728 38.736 201.792 39C200.88 39.24 199.98 39.36 199.092 39.36Z" fill="#10B981"/>
</g>
<defs>
<clipPath id="clip0_5_78">
<rect width="217" height="46" fill="white"/>
</clipPath>
</defs>
</svg>
